<svg id="dbros_logo" data-name="dbros_logo" xmlns="http://www.w3.org/2000/svg" width="140" height="45" viewBox="0 0 140 45">
<g id="Group_57" data-name="Group 57">
<path id="Path_116" data-name="Path 116" d="M7918.976,3949.661a6.158,6.158,0,0,1-1.051-4.491H7807.731v5.226H7919.69A4.634,4.634,0,0,1,7918.976,3949.661Z" transform="translate(-7807.731 -3908.914)" fill="#006098"></path>
<path id="Path_117" data-name="Path 117" d="M7930.231,3948.228a2.664,2.664,0,0,0,2.534-1.152,1.73,1.73,0,0,0,1.092.713,2.215,2.215,0,0,0,.407.039c2.351,0,3.611-3.918,3.666-4.094a7.786,7.786,0,0,0,.325-1.687,2.8,2.8,0,0,0,.281.116,3.83,3.83,0,0,0,3.01-.716,2.523,2.523,0,0,0,1.188.769c1.86.566,4.313-1.516,4.641-2.283l.024-.057a2.1,2.1,0,0,0,.169-.543,3.307,3.307,0,0,0,.076-.464,1.211,1.211,0,0,0-.3-1.065,2.552,2.552,0,0,0,.184-2.312,2.127,2.127,0,0,0-1.343-1.122,3.242,3.242,0,0,0-3.029.787,2.169,2.169,0,0,0-1.169-.84,2.766,2.766,0,0,0-1.7.033c.313-.373.6-.7.809-.941.57-.658.644-.742.721-.987a1.214,1.214,0,0,0-.08-.927,1.729,1.729,0,0,0-1.5-.779,2.927,2.927,0,0,0-1.141.092,2.433,2.433,0,0,0-.9.5,1.385,1.385,0,0,0-.44-.711,2.006,2.006,0,0,0-1.073-.4,2.436,2.436,0,0,0-1.1.158,3.258,3.258,0,0,0-1.25.868,2.307,2.307,0,0,0-.21.229,3.41,3.41,0,0,0-.493-1.4c-.534-.834-1.676-1.789-4.123-1.6a10.536,10.536,0,0,0-4.875,1.744H7807.731v4.656h112.481l0,.007a12.362,12.362,0,0,0-1.591,4.11c-.026.157-.042.309-.06.462,0,.028-.008.057-.012.084a6.132,6.132,0,0,0,1.057,4.491,4.652,4.652,0,0,0,.719.735,5.753,5.753,0,0,0,3.226,1.217,9.16,9.16,0,0,0,5.075-.974,4.443,4.443,0,0,0,.417,2.385A1.748,1.748,0,0,0,7930.231,3948.228Z" transform="translate(-7807.731 -3903.267)" fill="#fde021"></path>
<path id="Path_118" data-name="Path 118" d="M7989.875,3942.232c-.034-.722-.549-.934-1.037-.529C7988.874,3942.086,7989.491,3942.236,7989.875,3942.232Z" transform="translate(-7868.057 -3907.88)" fill="#fde021"></path>
<path id="Path_119" data-name="Path 119" d="M7989.271,3943.723a1.634,1.634,0,0,1-1.517-.54c-.274.626-.44,1.609.21,1.732C7988.534,3945.023,7989.029,3944.406,7989.271,3943.723Z" transform="translate(-7867.61 -3908.41)" fill="#fde021"></path>
<path id="Path_120" data-name="Path 120" d="M7999.235,3945.2a9.983,9.983,0,0,0-.47,1.291c-.09.289-1.1,3.521-.521,3.63.27.051.771-1.2.855-1.47A6.846,6.846,0,0,0,7999.235,3945.2Z" transform="translate(-7871.17 -3908.923)" fill="#fde021"></path>
<path id="Path_121" data-name="Path 121" d="M7995.43,3943.415a6.984,6.984,0,0,1,.479,1.154,7.152,7.152,0,0,1,.317,2.7c.128-.616.275-1.179.405-1.594a15.533,15.533,0,0,1,1.017-2.551.319.319,0,0,0-.018-.063c-.865.085-1.335.118-2.125.186C7995.484,3943.292,7995.46,3943.343,7995.43,3943.415Z" transform="translate(-7870.281 -3908.202)" fill="#fde021"></path>
<path id="Path_122" data-name="Path 122" d="M8007.1,3941.443c.055-.13.106-.429-.073-.484-.448-.137-1.033.878-1.246,1.379A1.91,1.91,0,0,0,8007.1,3941.443Z" transform="translate(-7873.773 -3907.69)" fill="#fde021"></path>
<path id="Path_123" data-name="Path 123" d="M8013.4,3941.522c.056-.13.106-.429-.072-.484-.448-.137-1.033.879-1.246,1.38A1.908,1.908,0,0,0,8013.4,3941.522Z" transform="translate(-7875.899 -3907.716)" fill="#fde021"></path>
<path id="Path_124" data-name="Path 124" d="M7993.8,3945.859a9.85,9.85,0,0,0-.471,1.292c-.168.537-1.077,3.525-.521,3.63.27.051.771-1.2.855-1.47A6.934,6.934,0,0,0,7993.8,3945.859Z" transform="translate(-7869.335 -3909.146)" fill="#fde021"></path>
<path id="Path_125" data-name="Path 125" d="M7917.925,3942.8c0-.028.008-.056.012-.084.018-.154.033-.306.059-.462a12.4,12.4,0,0,1,1.583-4.11H7807.731v4.656Z" transform="translate(-7807.731 -3906.73)" fill="#d7282f"></path>
<path id="Path_126" data-name="Path 126" d="M7865.228,3903.138v12.62h3.784v-12.643h3.329v-3.465H7861.9v3.488Z" transform="translate(-7825.79 -3894.404)" fill="#006098"></path>
<path id="Path_127" data-name="Path 127" d="M7881.527,3913.446a8.311,8.311,0,0,0,9.2,1.708,7.8,7.8,0,0,0,1.439-.821,4.663,4.663,0,0,0,.511-.422l-2.425-2.762a4.354,4.354,0,0,1-7.346-3.541,4.629,4.629,0,0,1,4.419-4.77,4.694,4.694,0,0,1,2.926,1.209l2.425-2.742a4.694,4.694,0,0,0-.517-.431,8.3,8.3,0,0,0-6.461-1.345,8.245,8.245,0,0,0-4.17,13.917Z" transform="translate(-7831.524 -3894.306)" fill="#006098"></path>
<path id="Path_128" data-name="Path 128" d="M7914.433,3913.088v-16.112h-3.785v6.291h-4.216v-11.535h-3.782v21.356h3.782v-6.354h4.216v6.354Z" transform="translate(-7839.372 -3891.732)" fill="#006098"></path>
<path id="Path_129" data-name="Path 129" d="M7983.427,3915.832a8.245,8.245,0,1,0-8.245-8.246A8.232,8.232,0,0,0,7983.427,3915.832Zm3.15-11.618a5.023,5.023,0,0,1,0,6.719,4.3,4.3,0,0,1-2.692,1.378,4.738,4.738,0,1,1,0-9.469A4.287,4.287,0,0,1,7986.577,3904.213Z" transform="translate(-7863.449 -3894.3)" fill="#006098"></path>
<path id="Path_130" data-name="Path 130" d="M8006.808,3909.014c1.147.412,2.013.65,2.013,1.992a1.311,1.311,0,0,1-1.3,1.341,2.226,2.226,0,0,1-1.948-1.428l-3.119,1.211a5.924,5.924,0,0,0,1.014,1.861,4.8,4.8,0,0,0,3.983,1.84h.184a4.866,4.866,0,0,0,4.974-4.826,4.437,4.437,0,0,0-1.387-3.426,9.483,9.483,0,0,0-2.814-1.7c-.7-.267-2.078-.739-2.078-1.751a1.213,1.213,0,0,1,1.454-1.235,1.771,1.771,0,0,1,.97.932l3.4-1.493a4.76,4.76,0,0,0-4.468-2.988c-3.138,0-5.133,1.955-5.133,4.913C8002.549,3906.6,8004.586,3908.316,8006.808,3909.014Z" transform="translate(-7872.652 -3894.299)" fill="#006098"></path>
<path id="Path_131" data-name="Path 131" d="M7844.287,3915.937c3.568,0,6.634-2.412,6.634-6.156v-10.128h-3.784v9.943a2.844,2.844,0,1,1-5.688,0v-9.943h-3.784v10.128C7837.664,3913.507,7840.706,3915.937,7844.287,3915.937Z" transform="translate(-7817.831 -3894.404)" fill="#006098"></path>
<path id="Path_132" data-name="Path 132" d="M7959.065,3915.741v-12.648h2.107a1.613,1.613,0,0,1,1.079.374,2.1,2.1,0,0,1,.655,1.6,2.069,2.069,0,0,1-.655,1.618,1.644,1.644,0,0,1-1.079.359h-1.366v2.008l3.856,6.687h4.255l-3.836-6.679a4.576,4.576,0,0,0,2.585-4.4,4.912,4.912,0,0,0-4.976-5.042h-6.409v16.116Z" transform="translate(-7856.912 -3894.395)" fill="#006098"></path>
<path id="Path_133" data-name="Path 133" d="M7941.757,3902.178a5.66,5.66,0,0,0,1.041-3.431,5.766,5.766,0,0,0-5.405-5.68.1.1,0,0,0-.058-.024.576.576,0,0,0-.078,0h-7.424v20.525h7.752a6.487,6.487,0,0,0,6.366-6.5A6.578,6.578,0,0,0,7941.757,3902.178Zm-3.05-3.354a2.141,2.141,0,0,1-2.135,2.114h-2.635V3896.8h2.468a2.679,2.679,0,0,1,.469.041A2.079,2.079,0,0,1,7938.707,3898.824Zm-4.77,5.879h3.169a2.557,2.557,0,1,1,0,5.1h-3.169Z" transform="translate(-7848.424 -3892.173)" fill="#006098"></path>
<path id="Path_134" data-name="Path 134" d="M7814.564,3913.565a10.263,10.263,0,1,0,0-20.525h-6.833v20.525Zm-2.729-16.763h2.661a6.153,6.153,0,0,1,6.283,6.5,6.3,6.3,0,0,1-6.448,6.5h-2.5Z" transform="translate(-7807.731 -3892.173)" fill="#006098"></path>
<path id="Path_135" data-name="Path 135" d="M8002.382,3937.62a1.173,1.173,0,0,0-.654-1.732c-1.566-.48-3.427,1.693-3.815,3.277-1.317,1.5-2.575,1.057-2.54.239a3.556,3.556,0,0,0,1.535-.493c1.769-1.026,1.827-2.713.645-3.076-1.025-.315-2.051.478-2.745,1.3a15.986,15.986,0,0,1-1.905.367,52.586,52.586,0,0,1,3.795-4.861.183.183,0,0,0-.011-.14c-.085-.176-.453-.208-.657-.225a1.5,1.5,0,0,0-1.486.585c-.4.5-1.562,2.219-3.055,4.592-.546.08-1.453.208-2.119.3,1.139-1.687,2.961-4.294,3.311-4.713a1.318,1.318,0,0,0,.422-.743.454.454,0,0,0-.12-.375,1.241,1.241,0,0,0-1.122-.069,2.416,2.416,0,0,0-.912.665c-.684.626-2.8,4.741-3.219,5.563-.349.03-.813.076-1.155.116a1.151,1.151,0,0,0-.575-1.071.531.531,0,0,0-.013-.373c-.141-.445-.536-.567-1-.567-2.648,0-4.464,5.328-1.7,5.851,1.628.308,2.84-1.318,3.2-2.94.259-.038.517-.07.774-.1a.427.427,0,0,1,.063.163,16.309,16.309,0,0,0-1.045,2.644c-1.587,1.714-3.289,2.571-5.541,2.218-6.472-.98.717-12.225,5.483-13.03a1.256,1.256,0,0,1,.214-.02c.675,0,.789.685-.24,2.25l-.313.547c-.64,1.008-.326,1.942,1.214,2.255a.449.449,0,0,0,.447-.183,17.913,17.913,0,0,0,1.122-1.839c.713-1.252.7-4-2.605-4-4.848,0-9.607,5.016-10.428,9.681-.492,2.875.575,5.5,3.97,5.782a7.885,7.885,0,0,0,6.3-2.169c-.248,1.186-.747,4.22.449,4.446,1.371.26,2.585-2.285,2.941-3.628-.205,1.541-.157,3.033.663,3.189,1.325.25,2.484-2.117,2.87-3.348a7.145,7.145,0,0,0-.512-5.384c0-.01.011-.021.015-.031.529-.054,1.031-.108,1.691-.236-.47.959-.825,2.931.7,3.4.942.289,2.413-.7,3.086-1.364a1.516,1.516,0,0,0,1.089,1.417c1.191.366,3.188-1.3,3.358-1.7a2.455,2.455,0,0,0,.19-.764c0-.06.063-.249-.07-.29-.077-.023-.145.045-.2.107-1.353,1.654-2.666,1.16-2.631.347A3.509,3.509,0,0,0,8002.382,3937.62Zm-5.566-.354c.18.055.128.354.073.484a1.911,1.911,0,0,1-1.319.9C7995.776,3938.159,7996.363,3937.128,7996.815,3937.266Zm-12.9,3.2c-.649-.124-.484-1.107-.21-1.733a1.634,1.634,0,0,0,1.518.54C7985.013,3939.873,7984.531,3940.583,7983.918,3940.468Zm.426-2.645c.488-.4,1-.193,1.038.529C7985,3938.356,7984.38,3938.207,7984.344,3937.823Zm3.544,6.137c-.083.266-.565,1.471-.839,1.471-.685,0,.614-4.183.975-4.922A6.93,6.93,0,0,1,7987.888,3943.96Zm1.621-1.1a7.288,7.288,0,0,0-.8-3.854c.03-.072.054-.123.075-.167.791-.067,1.261-.1,2.127-.186a.368.368,0,0,1,.017.063A16.675,16.675,0,0,0,7989.509,3942.862Zm1.984.659c-.083.266-.566,1.471-.839,1.471-.691,0,.625-4.207.974-4.923A6.835,6.835,0,0,1,7991.493,3943.521Zm9.569-5.719a1.906,1.906,0,0,1-1.318.9c.212-.5.8-1.518,1.246-1.379C8001.169,3937.374,8001.118,3937.672,8001.063,3937.8Z" transform="translate(-7863.563 -3903.795)" fill="#d7282f"></path>
</g>
</svg>