<svg xmlns="http://www.w3.org/2000/svg" xmlns:xlink="http://www.w3.org/1999/xlink" width="202" height="40" viewBox="0 0 202 40"><defs><clipPath id="a"><circle cx="20" cy="20" r="20" fill="#005f98" stroke="#707070" stroke-width="1"/></clipPath></defs><g transform="translate(-1489 -4215)"><circle cx="20" cy="20" r="20" transform="translate(1489 4215)" fill="#005f98"/><path d="M337.379,92.677h-4.244c-2.519,0-5.32,1.139-5.32,5.065.012,1.368,0,2.678,0,4.153H324.9v4.986h3v14.354h5.52V106.786h3.643l.33-4.905h-4.068s.009-2.182,0-2.816a1.418,1.418,0,0,1,1.592-1.463c.714,0,2.1,0,2.46,0V92.677Z" transform="translate(1178.023 4128.203)" fill="#fff"/><g transform="translate(1543 4215)" clip-path="url(#a)"><g transform="translate(-0.37)"><path d="M10.228,40.194a13.58,13.58,0,0,1-4.569-.846,7.644,7.644,0,0,1-2.829-1.84A7.585,7.585,0,0,1,.99,34.68a13.58,13.58,0,0,1-.846-4.569C.024,27.518,0,26.74,0,20.17s.026-7.346.143-9.942A13.657,13.657,0,0,1,.989,5.66a7.673,7.673,0,0,1,1.84-2.83A7.6,7.6,0,0,1,5.658.989,13.58,13.58,0,0,1,10.227.143C12.822.024,13.6,0,20.168,0s7.346.026,9.942.143a13.657,13.657,0,0,1,4.569.846,7.614,7.614,0,0,1,2.829,1.84,7.619,7.619,0,0,1,1.84,2.829,13.58,13.58,0,0,1,.846,4.569c.119,2.6.143,3.372.143,9.942s-.024,7.346-.143,9.942a13.643,13.643,0,0,1-.846,4.569,8.146,8.146,0,0,1-4.669,4.668,13.58,13.58,0,0,1-4.569.846c-2.593.119-3.372.143-9.942.143s-7.346-.023-9.94-.143" fill="#005f98"/><path d="M10.228,40.194a13.58,13.58,0,0,1-4.569-.846,7.644,7.644,0,0,1-2.829-1.84A7.585,7.585,0,0,1,.99,34.68a13.58,13.58,0,0,1-.846-4.569C.024,27.518,0,26.74,0,20.17s.026-7.346.143-9.942A13.657,13.657,0,0,1,.989,5.66a7.673,7.673,0,0,1,1.84-2.83A7.6,7.6,0,0,1,5.658.989,13.58,13.58,0,0,1,10.227.143C12.822.024,13.6,0,20.168,0s7.346.026,9.942.143a13.657,13.657,0,0,1,4.569.846,7.614,7.614,0,0,1,2.829,1.84,7.619,7.619,0,0,1,1.84,2.829,13.58,13.58,0,0,1,.846,4.569c.119,2.6.143,3.372.143,9.942s-.024,7.346-.143,9.942a13.643,13.643,0,0,1-.846,4.569,8.146,8.146,0,0,1-4.669,4.668,13.58,13.58,0,0,1-4.569.846c-2.593.119-3.372.143-9.942.143s-7.346-.023-9.94-.143" fill="#005f98"/></g></g><path d="M443.671,451.25a3.91,3.91,0,1,1,3.909,3.91,3.91,3.91,0,0,1-3.909-3.91m-2.114,0a6.023,6.023,0,1,0,6.023-6.023,6.023,6.023,0,0,0-6.023,6.023m10.877-6.262a1.408,1.408,0,1,0,1.408-1.407h0a1.408,1.408,0,0,0-1.408,1.407m-9.593,15.81a6.482,6.482,0,0,1-2.178-.4,3.884,3.884,0,0,1-2.227-2.226,6.475,6.475,0,0,1-.4-2.178c-.057-1.236-.068-1.608-.068-4.74s.012-3.5.068-4.74a6.526,6.526,0,0,1,.4-2.178,3.882,3.882,0,0,1,2.227-2.227,6.477,6.477,0,0,1,2.178-.4c1.236-.057,1.608-.068,4.739-.068s3.5.012,4.74.068a6.528,6.528,0,0,1,2.178.4,3.882,3.882,0,0,1,2.227,2.227,6.479,6.479,0,0,1,.4,2.178c.057,1.237.068,1.608.068,4.74s-.011,3.5-.068,4.74a6.508,6.508,0,0,1-.4,2.178,3.884,3.884,0,0,1-2.227,2.226,6.476,6.476,0,0,1-2.178.4c-1.236.057-1.608.068-4.74.068s-3.5-.011-4.739-.068m-.1-21.207a8.6,8.6,0,0,0-2.847.545,6,6,0,0,0-3.431,3.431,8.6,8.6,0,0,0-.545,2.847c-.058,1.251-.071,1.651-.071,4.836s.013,3.585.071,4.836a8.6,8.6,0,0,0,.545,2.847,6,6,0,0,0,3.431,3.431,8.609,8.609,0,0,0,2.847.545c1.251.057,1.651.071,4.836.071s3.585-.013,4.836-.071a8.6,8.6,0,0,0,2.847-.545,6,6,0,0,0,3.431-3.431,8.582,8.582,0,0,0,.545-2.847c.057-1.252.07-1.651.07-4.836s-.013-3.585-.07-4.836a8.6,8.6,0,0,0-.545-2.847,6,6,0,0,0-3.43-3.431,8.59,8.59,0,0,0-2.847-.545c-1.251-.057-1.651-.071-4.836-.071s-3.586.013-4.837.071" transform="translate(1115.229 3783.91)" fill="#fff"/><circle cx="20" cy="20" r="20" transform="translate(1597 4215)" fill="#005f98"/><path d="M6.9,16.095c8.275,0,12.8-6.191,12.8-11.56q0-.264-.013-.525a8.711,8.711,0,0,0,2.244-2.1,9.728,9.728,0,0,1-2.583.64A4.181,4.181,0,0,0,21.321.3a9.63,9.63,0,0,1-2.857.986A4.73,4.73,0,0,0,15.181,0a4.3,4.3,0,0,0-4.5,4.062,3.682,3.682,0,0,0,.117.926A13.274,13.274,0,0,1,1.526.744,3.756,3.756,0,0,0,.917,2.786a3.973,3.973,0,0,0,2,3.382A4.836,4.836,0,0,1,.881,5.66c0,.017,0,.034,0,.052A4.193,4.193,0,0,0,4.49,9.695a4.961,4.961,0,0,1-2.032.07,4.471,4.471,0,0,0,4.2,2.822,9.656,9.656,0,0,1-5.587,1.739A10.1,10.1,0,0,1,0,14.269a13.743,13.743,0,0,0,6.9,1.825" transform="translate(1605.791 4227.547)" fill="#fff"/><path d="M-478,40a20,20,0,0,1-20-20A20,20,0,0,1-478,0a20,20,0,0,1,20,20A20,20,0,0,1-478,40Zm-11.435-14.755a8.121,8.121,0,0,0,8.121,8.121,8.121,8.121,0,0,0,8.122-8.121V14.256a7.135,7.135,0,0,0,5.971,3.227q.329,0,.658-.033h0V13a7.132,7.132,0,0,1-6.573-6.367h-3.829L-477,25.3a4.247,4.247,0,0,1-4.312,4.093,4.145,4.145,0,0,1-4.145-4.144,4.144,4.144,0,0,1,4.145-4.145,4.021,4.021,0,0,1,.5.05v-4c-.167-.011-.332-.026-.5-.026A8.121,8.121,0,0,0-489.435,25.245Z" transform="translate(2149 4215)" fill="#005f98"/></g></svg>